# xmcd
#
# Track frame offsets: 
#        150
#        22361
#        37098
#        55970
#        73184
#        91748
#        110485
#        127510
#        143707
#        159202
#        176974
#        193566
#        210174
#        231025
#        250222
#        265097
#        287518
#        305166
#        324719
#
# Disc length: 4613 seconds
#
# Revision: 0
# Processed by: cddbd v1.5.2PL0 Copyright (c) Steve Scherf et al.
# Submitted via: ExactAudioCopyFreeDBPlugin 1.0
#
DISCID=10120313
DTITLE=Ne-Yo - R.E.D. (Deluxe Edition)
DYEAR=2012
DGENRE=R&B
TTITLE0=Cracks in Mr. Perfect
TTITLE1=Lazy Love
TTITLE2=Let Me Love You (Until You Learn to Love Yourself)
TTITLE3=Miss Right
TTITLE4=Jealous
TTITLE5=Don't Make Em Like You" (feat. Wiz Khalifa)
TTITLE6=Be the One
TTITLE7=Stress Reliever
TTITLE8=She Is (feat. Tim McGraw)
TTITLE9=Carry On (Her Letter to Him)
TTITLE10=Forever Now
TTITLE11=Shut Me Down
TTITLE12=Unconditional
TTITLE13=Should Be You (feat. Fabolous and Diddy)
TTITLE14=My Other Gun
TTITLE15=Alone With You (Maddie's Song)
TTITLE16=Let's Go (feat. Calvin Harris)
TTITLE17=All She Wants (feat. Young Jeezy and RaVaughn)
TTITLE18=To Whom It May Concern
EXTD=
EXTT0=
EXTT1=
EXTT2=
EXTT3=
EXTT4=
EXTT5=
EXTT6=
EXTT7=
EXTT8=
EXTT9=
EXTT10=
EXTT11=
EXTT12=
EXTT13=
EXTT14=
EXTT15=
EXTT16=
EXTT17=
EXTT18=
PLAYORDER=
